<svg width="512" height="166" viewBox="0 0 512 166" fill="none" xmlns="http://www.w3.org/2000/svg">
<path d="M47.1813 78.7625H77.2105C85.5617 78.7625 92.2256 71.8733 92.2256 63.4944V34.8427C92.2256 26.689 85.3648 20.5873 77.2105 19.2096C67.1447 17.5505 56.2072 17.6348 47.1813 19.2373C34.4721 21.4869 32.1667 26.1827 32.1667 34.871V41.0032H62.2239V50.1385H20.8916C12.1473 50.1385 4.49866 55.3964 2.109 65.3784C-0.64655 76.8222 -0.758887 83.964 2.109 95.9141C4.24597 104.8 9.33516 111.154 18.0797 111.154H28.399V97.4327C28.3987 87.5073 36.9746 78.7625 47.1813 78.7625Z" fill="#347AB4"/>
<path d="M45.2976 35.6977C42.3022 35.6977 39.8737 33.242 39.8737 30.2197C39.9006 27.1704 42.3022 24.7147 45.2976 24.7147C48.2661 24.7147 50.7218 27.1972 50.7218 30.2197C50.7215 33.242 48.293 35.6977 45.2976 35.6977Z" fill="white"/>
<path d="M127.013 70.1367C124.848 61.4485 120.743 54.8969 111.999 54.8969H100.724V68.2247C100.724 78.572 91.951 87.288 81.9412 87.288H51.9118C43.7012 87.288 36.8969 94.3181 36.8969 102.556V131.18C36.8969 139.334 43.9825 144.113 51.9118 146.448C61.4153 149.231 70.5532 149.738 81.9409 146.448C89.505 144.254 96.9561 139.84 96.9561 131.18V125.178H66.955V115.912H111.998C120.743 115.912 123.976 109.81 127.013 100.672C130.162 91.2527 130.022 82.1988 127.013 70.1367Z" fill="#FFCA1D"/>
<path d="M81.259 141.799C78.2636 141.799 75.8348 139.344 75.8348 136.321C75.8619 133.272 78.2633 130.816 81.259 130.816C84.2275 130.816 86.6832 133.299 86.6832 136.321C86.6832 139.344 84.2546 141.799 81.259 141.799Z" fill="white"/>
<path d="M360.824 147.944C360.824 149.864 360.205 151.336 358.968 152.36C357.773 153.341 356.408 153.832 354.872 153.832C353.336 153.832 351.949 153.341 350.712 152.36C349.517 151.336 348.92 149.864 348.92 147.944C348.92 146.024 349.517 144.573 350.712 143.592C351.949 142.568 353.336 142.056 354.872 142.056C356.408 142.056 357.773 142.568 358.968 143.592C360.205 144.573 360.824 146.024 360.824 147.944ZM363.693 136.168C363.693 133.736 364.077 131.453 364.845 129.32C365.655 127.144 366.807 125.267 368.301 123.688C369.794 122.067 371.607 120.787 373.741 119.848C375.874 118.909 378.306 118.44 381.037 118.44C382.829 118.44 384.471 118.611 385.965 118.952C387.458 119.251 388.909 119.699 390.317 120.296L388.333 127.912C387.437 127.571 386.455 127.272 385.389 127.016C384.322 126.76 383.127 126.632 381.805 126.632C378.989 126.632 376.877 127.507 375.469 129.256C374.103 131.005 373.421 133.309 373.421 136.168C373.421 139.197 374.061 141.544 375.341 143.208C376.663 144.872 378.946 145.704 382.189 145.704C383.341 145.704 384.578 145.597 385.901 145.384C387.223 145.171 388.439 144.829 389.549 144.36L390.893 152.168C389.783 152.637 388.397 153.043 386.733 153.384C385.069 153.725 383.234 153.896 381.229 153.896C378.157 153.896 375.511 153.448 373.293 152.552C371.074 151.613 369.239 150.355 367.789 148.776C366.381 147.197 365.335 145.341 364.653 143.208C364.013 141.032 363.693 138.685 363.693 136.168ZM427.156 136.104C427.156 138.749 426.772 141.181 426.004 143.4C425.236 145.576 424.126 147.453 422.676 149.032C421.225 150.568 419.476 151.763 417.428 152.616C415.422 153.469 413.161 153.896 410.644 153.896C408.169 153.896 405.908 153.469 403.86 152.616C401.854 151.763 400.126 150.568 398.676 149.032C397.225 147.453 396.094 145.576 395.284 143.4C394.473 141.181 394.068 138.749 394.068 136.104C394.068 133.459 394.473 131.048 395.284 128.872C396.137 126.696 397.289 124.84 398.74 123.304C400.233 121.768 401.982 120.573 403.988 119.72C406.036 118.867 408.254 118.44 410.644 118.44C413.076 118.44 415.294 118.867 417.3 119.72C419.348 120.573 421.097 121.768 422.548 123.304C423.998 124.84 425.129 126.696 425.94 128.872C426.75 131.048 427.156 133.459 427.156 136.104ZM417.428 136.104C417.428 133.16 416.83 130.856 415.636 129.192C414.484 127.485 412.82 126.632 410.644 126.632C408.468 126.632 406.782 127.485 405.588 129.192C404.393 130.856 403.796 133.16 403.796 136.104C403.796 139.048 404.393 141.395 405.588 143.144C406.782 144.851 408.468 145.704 410.644 145.704C412.82 145.704 414.484 144.851 415.636 143.144C416.83 141.395 417.428 139.048 417.428 136.104ZM453.039 135.144C453.039 132.072 452.633 129.896 451.823 128.616C451.055 127.336 449.711 126.696 447.791 126.696C447.193 126.696 446.575 126.739 445.935 126.824C445.295 126.867 444.676 126.931 444.079 127.016V153H434.543V120.488C435.353 120.275 436.292 120.061 437.359 119.848C438.468 119.592 439.62 119.379 440.815 119.208C442.052 118.995 443.311 118.845 444.591 118.76C445.871 118.632 447.129 118.568 448.367 118.568C450.799 118.568 452.761 118.888 454.255 119.528C455.791 120.125 457.049 120.851 458.031 121.704C459.396 120.723 460.953 119.955 462.703 119.4C464.495 118.845 466.137 118.568 467.631 118.568C470.319 118.568 472.516 118.952 474.223 119.72C475.972 120.445 477.359 121.491 478.383 122.856C479.407 124.221 480.111 125.843 480.495 127.72C480.879 129.597 481.071 131.688 481.071 133.992V153H471.535V135.144C471.535 132.072 471.129 129.896 470.319 128.616C469.551 127.336 468.207 126.696 466.287 126.696C465.775 126.696 465.049 126.824 464.111 127.08C463.215 127.336 462.468 127.656 461.871 128.04C462.169 129.021 462.361 130.067 462.447 131.176C462.532 132.243 462.575 133.395 462.575 134.632V153H453.039V135.144Z" fill="#FFCA1D"/>
<path d="M172.956 74.028C172.956 69.06 171.84 65.1 169.608 62.148C167.376 59.124 164.064 57.612 159.672 57.612C158.232 57.612 156.9 57.684 155.676 57.828C154.452 57.9 153.444 58.008 152.652 58.152V87.204C153.66 87.852 154.956 88.392 156.54 88.824C158.196 89.256 159.852 89.472 161.508 89.472C169.14 89.472 172.956 84.324 172.956 74.028ZM189.372 73.596C189.372 77.988 188.832 81.984 187.752 85.584C186.672 89.184 185.088 92.28 183 94.872C180.912 97.464 178.32 99.48 175.224 100.92C172.128 102.36 168.564 103.08 164.532 103.08C162.3 103.08 160.212 102.864 158.268 102.432C156.324 102 154.452 101.388 152.652 100.596V121.98H136.56V47.136C138 46.704 139.656 46.308 141.528 45.948C143.4 45.516 145.344 45.156 147.36 44.868C149.448 44.58 151.536 44.364 153.624 44.22C155.784 44.004 157.836 43.896 159.78 43.896C164.46 43.896 168.636 44.616 172.308 46.056C175.98 47.424 179.076 49.404 181.596 51.996C184.116 54.516 186.024 57.612 187.32 61.284C188.688 64.956 189.372 69.06 189.372 73.596ZM250.699 45.192C247.459 56.136 244.075 66.396 240.547 75.972C237.019 85.548 233.167 94.836 228.991 103.836C227.479 107.076 225.967 109.812 224.455 112.044C222.943 114.348 221.287 116.22 219.487 117.66C217.687 119.172 215.635 120.252 213.331 120.9C211.099 121.62 208.471 121.98 205.447 121.98C202.927 121.98 200.587 121.728 198.427 121.224C196.339 120.792 194.611 120.288 193.243 119.712L196.051 106.86C197.707 107.436 199.183 107.832 200.479 108.048C201.775 108.264 203.143 108.372 204.583 108.372C207.463 108.372 209.659 107.58 211.171 105.996C212.755 104.484 214.087 102.36 215.167 99.624C211.495 92.424 207.823 84.36 204.151 75.432C200.479 66.432 197.023 56.352 193.783 45.192H210.847C211.567 48 212.395 51.06 213.331 54.372C214.339 57.612 215.383 60.924 216.463 64.308C217.543 67.62 218.623 70.86 219.703 74.028C220.855 77.196 221.935 80.076 222.943 82.668C223.879 80.076 224.851 77.196 225.859 74.028C226.867 70.86 227.839 67.62 228.775 64.308C229.783 60.924 230.719 57.612 231.583 54.372C232.519 51.06 233.347 48 234.067 45.192H250.699ZM259.326 102V20.784L275.418 18.192V45.408C276.498 45.048 277.866 44.724 279.522 44.436C281.25 44.076 282.906 43.896 284.49 43.896C289.098 43.896 292.914 44.544 295.938 45.84C299.034 47.064 301.482 48.828 303.282 51.132C305.154 53.436 306.45 56.172 307.17 59.34C307.962 62.508 308.358 66.036 308.358 69.924V102H292.266V71.868C292.266 66.684 291.582 63.012 290.214 60.852C288.918 58.692 286.47 57.612 282.87 57.612C281.43 57.612 280.062 57.756 278.766 58.044C277.542 58.26 276.426 58.512 275.418 58.8V102H259.326ZM371.415 100.056C368.679 100.848 365.151 101.568 360.831 102.216C356.511 102.936 351.975 103.296 347.223 103.296C342.399 103.296 338.367 102.648 335.127 101.352C331.959 100.056 329.439 98.256 327.567 95.952C325.695 93.576 324.363 90.768 323.571 87.528C322.779 84.288 322.383 80.724 322.383 76.836V45.192H338.475V74.892C338.475 80.076 339.159 83.82 340.527 86.124C341.895 88.428 344.451 89.58 348.195 89.58C349.347 89.58 350.571 89.544 351.867 89.472C353.163 89.328 354.315 89.184 355.323 89.04V45.192H371.415V100.056ZM386.521 47.136C389.257 46.344 392.785 45.624 397.105 44.976C401.425 44.256 405.961 43.896 410.713 43.896C415.537 43.896 419.533 44.544 422.701 45.84C425.941 47.064 428.497 48.828 430.369 51.132C432.241 53.436 433.573 56.172 434.365 59.34C435.157 62.508 435.553 66.036 435.553 69.924V102H419.461V71.868C419.461 66.684 418.777 63.012 417.409 60.852C416.041 58.692 413.485 57.612 409.741 57.612C408.589 57.612 407.365 57.684 406.069 57.828C404.773 57.9 403.621 58.008 402.613 58.152V102H386.521V47.136ZM449.579 31.044L465.671 28.452V45.192H485.003V58.584H465.671V78.564C465.671 81.948 466.247 84.648 467.399 86.664C468.623 88.68 471.035 89.688 474.635 89.688C476.363 89.688 478.127 89.544 479.927 89.256C481.799 88.896 483.491 88.428 485.003 87.852L487.271 100.38C485.327 101.172 483.167 101.856 480.791 102.432C478.415 103.008 475.499 103.296 472.043 103.296C467.651 103.296 464.015 102.72 461.135 101.568C458.255 100.344 455.951 98.688 454.223 96.6C452.495 94.44 451.271 91.848 450.551 88.824C449.903 85.8 449.579 82.452 449.579 78.78V31.044Z" fill="white"/>
</svg>
